<svg width="32" height="23" viewBox="0 0 32 23" fill="#787D85" xmlns="http://www.w3.org/2000/svg">
<path d="M7.2121 3.74976C7.21141 3.74976 7.21065 3.74976 7.20997 3.74976C6.97081 3.74976 6.74587 3.81888 6.57601 3.9445C6.40428 4.07151 6.30969 4.24063 6.30969 4.42066V14.4808C6.30969 14.8497 6.71607 15.1506 7.21567 15.1515C9.32188 15.1553 12.8506 15.4807 15.2849 17.3695V6.84131C15.2849 6.71626 15.2419 6.59878 15.1606 6.50156C13.1626 4.11589 9.32307 3.75342 7.2121 3.74976Z" />
<path d="M25.665 14.4808V4.4206C25.665 4.24057 25.5704 4.07145 25.3987 3.94444C25.2288 3.81882 25.0037 3.74969 24.7648 3.74969C24.764 3.74969 24.7633 3.74969 24.7626 3.74969C22.6517 3.75342 18.8122 4.11589 16.8141 6.50156C16.7328 6.59878 16.6898 6.71626 16.6898 6.84131V17.3695C19.1242 15.4807 22.6529 15.1552 24.7591 15.1515C25.2586 15.1505 25.665 14.8496 25.665 14.4808Z" />
<path d="M27.7259 6.06976H27.0698V14.4808C27.0698 15.4227 26.0348 16.1908 24.7624 16.1931C22.9759 16.1962 20.0302 16.4553 17.944 17.9192C21.5521 17.2642 25.3557 17.69 27.5234 18.0563C27.794 18.102 28.0737 18.0547 28.2906 17.9266C28.5066 17.7988 28.6306 17.6077 28.6306 17.4026V6.74054C28.6307 6.37069 28.2247 6.06976 27.7259 6.06976Z"/>
<path d="M4.90479 14.4808V6.06976H4.2487C3.74994 6.06976 3.34399 6.37069 3.34399 6.74054V17.4024C3.34399 17.6076 3.46796 17.7986 3.68405 17.9264C3.90073 18.0545 4.18016 18.1019 4.45125 18.0561C6.61892 17.6898 10.4226 17.264 14.0305 17.919C11.9444 16.4551 8.99868 16.1962 7.21218 16.193C5.93993 16.1908 4.90479 15.4227 4.90479 14.4808Z" />
</svg>
