<svg width="31" height="23" viewBox="0 0 31 23" fill="#787D85" xmlns="http://www.w3.org/2000/svg">
<path d="M19.6297 4.16813L9.30235 8.08845L5.19739 6.59091L15.3427 2.87659C15.5703 2.79081 15.8434 2.79081 16.0823 2.87659L19.6297 4.16813Z" />
<path d="M26.2371 6.59094L15.7287 10.4508L11.7934 9.01302L11.2245 8.79858L21.5632 4.87897L22.1322 5.0927L26.2371 6.59094Z" />
<path d="M14.8866 11.563L14.8752 19.6856L4.81047 15.7913C4.526 15.6802 4.34393 15.4573 4.34393 15.2176V7.70319L8.60915 9.26119V12.0003C8.60915 12.3512 8.99604 12.6423 9.46258 12.6423C9.92912 12.6423 10.316 12.3512 10.316 12.0003V9.89465L10.885 10.1L14.8866 11.563Z" />
<path d="M27.0906 7.71161L16.5935 11.5546L16.5821 19.6771L27.102 15.6043L27.0906 7.71161Z" />
</svg>
